<svg xmlns="http://www.w3.org/2000/svg" xmlns:xlink="http://www.w3.org/1999/xlink" width="1419" height="494" viewBox="0 0 1419 494">
  <defs>
    <clipPath id="clip-Logo_1">
      <rect width="1419" height="494"/>
    </clipPath>
  </defs>
  <g id="Logo_1" data-name="Logo – 1" clip-path="url(#clip-Logo_1)">
    <g id="Group_23" data-name="Group 23">
      <g id="Group_2" data-name="Group 2" transform="translate(-242 -273.409)">
        <path id="Path_1" data-name="Path 1" d="M3156.245,902.471V623.281h153.8" transform="translate(-2658.658 -238.944)" fill="none" stroke="#fff" stroke-linecap="round" stroke-linejoin="round" stroke-width="45"/>
        <path id="Path_2" data-name="Path 2" d="M3011.881,624.985l125.685,138.207L3011.881,903.228" transform="translate(-2671.836 -240.648)" fill="none" stroke="#fff" stroke-linecap="round" stroke-linejoin="bevel" stroke-width="45"/>
        <path id="Path_3" data-name="Path 3" d="M3175,734.45h100.975" transform="translate(-2659.812 -213.821)" fill="none" stroke="#fff" stroke-linecap="round" stroke-linejoin="bevel" stroke-width="45"/>
      </g>
      <g id="Group_4" data-name="Group 4" transform="translate(80 -304)">
        <text id="Karing_Fr" data-name="Karing
Fr" transform="translate(415 523)" fill="#fff" font-size="188" font-family="Quicksand" font-weight="700"><tspan x="0" y="0">Karing</tspan><tspan x="0" y="198">Fr</tspan></text>
        <g id="Group_5" data-name="Group 5" transform="translate(9 -2)">
          <path id="Exclusion_1" data-name="Exclusion 1" d="M-4163.5,175a49.192,49.192,0,0,1-19.268-3.89A49.333,49.333,0,0,1-4198.5,160.5a49.334,49.334,0,0,1-10.609-15.734A49.188,49.188,0,0,1-4213,125.5a49.188,49.188,0,0,1,3.89-19.268A49.334,49.334,0,0,1-4198.5,90.5a49.332,49.332,0,0,1,15.734-10.608A49.192,49.192,0,0,1-4163.5,76a49.189,49.189,0,0,1,19.267,3.89A49.333,49.333,0,0,1-4128.5,90.5a49.331,49.331,0,0,1,10.608,15.734A49.18,49.18,0,0,1-4114,125.5a49.18,49.18,0,0,1-3.89,19.268A49.331,49.331,0,0,1-4128.5,160.5a49.333,49.333,0,0,1-15.734,10.608A49.189,49.189,0,0,1-4163.5,175Zm-12.6-69.227a12.3,12.3,0,0,0-8.885,3.794,13.085,13.085,0,0,0-3.7,9.023,26.134,26.134,0,0,0,1.932,10.111,34.225,34.225,0,0,0,5.348,8.781,58.106,58.106,0,0,0,7.764,7.689c2.579,2.156,5.583,4.392,9.183,6.835a2.114,2.114,0,0,0,1.192.366,2.111,2.111,0,0,0,1.191-.366c3.6-2.443,6.6-4.679,9.182-6.835a58.131,58.131,0,0,0,7.764-7.689,34.225,34.225,0,0,0,5.348-8.781,26.135,26.135,0,0,0,1.933-10.111,13.089,13.089,0,0,0-3.7-9.023,12.306,12.306,0,0,0-8.886-3.794,12.6,12.6,0,0,0-5.631,1.324,15.432,15.432,0,0,0-4.008,2.913,18.257,18.257,0,0,0-3.192,4.237,18.4,18.4,0,0,0-3.192-4.237,15.444,15.444,0,0,0-4.009-2.913A12.6,12.6,0,0,0-4176.1,105.773Z" transform="translate(4819 550)" fill="#fff"/>
        </g>
      </g>
      <text id="ntiers" transform="translate(806 417)" fill="#fff" font-size="188" font-family="Quicksand" font-weight="700"><tspan x="0" y="0">ntiers</tspan></text>
    </g>
  </g>
</svg>
